HIERARCHY
ROOT pelvis
{
  OFFSET 0 100 0
  CHANNELS 6 Xposition Yposition Zposition Zrotation Xrotation Yrotation
  JOINT pelvis_right_femur
  {
    OFFSET -10.78128 -3.44521 -0.5502486
    CHANNELS 3 Zrotation Xrotation Yrotation
    JOINT right_femur_tibia
    {
      OFFSET -0.8047443 -44.0398 -0.1307829
      CHANNELS 3 Zrotation Xrotation Yrotation
      JOINT right_tibia_foot
      {
        OFFSET 3.006224 -47.83518 -5
        CHANNELS 3 Zrotation Xrotation Yrotation
        End Site
        {
          OFFSET 0 -5 15
        }
      }
    }
  }
  JOINT pelvis_left_femur
  {
    OFFSET 10.78128 -3.44521 -0.5502486
    CHANNELS 3 Zrotation Xrotation Yrotation
    JOINT left_femur_tibia
    {
      OFFSET 0.8047443 -44.0398 -0.1307829
      CHANNELS 3 Zrotation Xrotation Yrotation
      JOINT left_tibia_foot
      {
        OFFSET -4.370144 -48.10324 -4.275266
        CHANNELS 3 Zrotation Xrotation Yrotation
        End Site
        {
          OFFSET 0 -5 15
        }
      }
    }
  }
  JOINT pelvis_spine1
  {
    OFFSET 0 6.468898 -3.129235
    CHANNELS 3 Zrotation Xrotation Yrotation
    JOINT spine1
    {
      OFFSET 0 23.15396 4.99043
      CHANNELS 3 Zrotation Xrotation Yrotation
      JOINT spine2
      {
        OFFSET 0 20.79997 -5.064912
        CHANNELS 3 Zrotation Xrotation Yrotation
        JOINT neck
        {
          OFFSET 0 14.38658 9.616178
          CHANNELS 3 Zrotation Xrotation Yrotation
          End Site
          {
            OFFSET 0 20 0
          }
        }
      }
      JOINT right_manubrium
      {
        OFFSET -5.722621 16.35077 3.967754
        CHANNELS 3 Zrotation Xrotation Yrotation
        JOINT right_clavicle
        {
          OFFSET -13.16364 1.694482 -4.693211
          CHANNELS 3 Zrotation Xrotation Yrotation
          JOINT right_humerus
          {
            OFFSET -28.5034 -0.3100689 -2.792744
            CHANNELS 3 Zrotation Xrotation Yrotation
            JOINT right_radius
            {
              OFFSET -25.15693 0.02248979 -1.271978
              CHANNELS 3 Zrotation Xrotation Yrotation
              End Site
              {
                OFFSET -15 0 0
              }
            }
          }
        }
      }
      JOINT left_manubrium
      {
        OFFSET 5.722621 16.35077 3.967754
        CHANNELS 3 Zrotation Xrotation Yrotation
        JOINT left_clavicle
        {
          OFFSET 13.16364 1.694482 -4.693211
          CHANNELS 3 Zrotation Xrotation Yrotation
          JOINT left_humerus
          {
            OFFSET 29.39168 -1.063119 -2.237045
            CHANNELS 3 Zrotation Xrotation Yrotation
            JOINT left_radius
            {
              OFFSET 24.59957 -0.9528479 0.9047498
              CHANNELS 3 Zrotation Xrotation Yrotation
              End Site
              {
                OFFSET 15 -0 -0
              }
            }
          }
        }
      }
    }
  }
}
MOTION
Frames: 21
Frame Time: 0.0416666666667
0 103.5113 0 2.490811 0.009214165 0.1052061 3.38185 -15.45922 11.75598 -0 37.1968 -0 -4.493605 -17.58322 -3.797342 -8.745503 8.965976 -21.73446 -0 5.109495 -0 22.59108 -9.566766 29.97087 -3.11423 -2.736631 6.768752 1.454913 11.59221 -6.547585 1.399868 21.83739 5.866008 3.691926 -23.0678 8.024405 5.205603 -20.93668 10.37055 86.05658 37.86096 -17.7782 -0 0 16.05127 -8.629316 8.439172 4.397716 6.200081 -21.62878 -3.239169 -92.18949 23.03342 21.18308 0 0 -17.91942 13.44599 12.28684 -0.4763377
0.4086717 103.3278 1.600891 1.874938 0.7258507 0.1588932 4.446882 -17.81387 12.2929 -0 38.03232 -0 -4.699589 -16.34798 -3.332612 -8.482516 8.633875 -21.60818 -0 5.659633 -0 22.96902 -9.603724 30.24526 -3.03143 -2.596994 6.382768 1.787793 11.30559 -6.895097 1.26264 21.45352 6.348509 3.946283 -23.65967 8.215798 5.313758 -20.48127 10.57972 86.1828 37.35432 -18.28686 -0 0 15.59352 -8.588585 8.642225 4.424019 6.464516 -21.8024 -2.882252 -91.97258 22.56107 20.49765 0 0 -18.22354 13.31596 12.22175 -0.8246427
0.6815088 103.011 3.533754 1.157825 0.6856261 0.258752 4.698515 -20.62636 8.595041 -0 34.43277 -0 -6.327374 -13.75972 -1.909762 -7.794909 10.23026 -21.36291 -0 6.019079 -0 17.34579 -13.99409 28.28981 -2.862458 -2.290402 6.167197 1.933525 11.06924 -6.970053 1.214789 21.27367 6.508001 4.00915 -24.00176 8.23502 5.252358 -20.15624 10.68503 86.07814 37.02502 -18.15377 -0 0 15.21293 -8.896111 8.857927 4.827996 6.425777 -21.70598 -2.720679 -91.66353 22.48512 20.04708 0 0 -18.53431 12.83615 11.99651 -0.4700218
0.8974864 102.6559 5.73836 0.4880215 1.024334 0.3501763 5.312718 -23.4845 7.205953 -0 32.47905 -0 -7.118258 -11.63085 -1.175319 -7.250545 10.92838 -20.94013 -0 6.599887 -0 14.54146 -16.25293 27.0292 -2.835575 -2.129224 6.110188 1.957382 11.00422 -6.971702 1.163298 21.19181 6.620576 4.100643 -24.05948 8.192254 5.191892 -20.05853 10.73789 85.98171 36.92801 -17.94206 -0 0 15.10537 -9.159636 8.930245 5.08717 6.41473 -21.69003 -2.688382 -91.42 22.29991 19.74593 0 0 -18.74276 12.67454 11.71643 -0.4503764
1.079216 102.2095 8.325518 -0.1129924 1.244968 0.4565596 5.844496 -26.51881 5.579343 -0 29.70015 -0 -8.107233 -9.052427 -0.3582661 -6.715075 11.66273 -20.05234 -0 7.704131 -0 12.42235 -18.06952 25.44471 -2.805136 -1.957977 6.093799 1.945349 10.96112 -6.925708 1.128028 21.15173 6.670181 4.154015 -24.05375 8.116314 5.112719 -20.00153 10.77372 85.84135 36.85649 -17.62468 -0 0 15.03852 -9.467431 8.988906 5.395472 6.350309 -21.62922 -2.697346 -91.1875 22.18572 19.52598 0 0 -18.91848 12.46029 11.42229 -0.3067373
1.245059 101.7081 11.34213 -0.6491104 1.56854 0.5995051 6.36773 -29.37964 4.313163 -0 26.82772 -0 -8.931971 -6.51096 0.3486925 -6.25154 12.29469 -19.00576 -0 9.174232 -0 10.77882 -19.37228 23.77137 -2.800314 -1.815421 6.106672 1.91113 10.94761 -6.866439 1.093211 21.1281 6.709328 4.208762 -23.99643 8.029776 5.034475 -19.98905 10.80222 85.69336 36.81281 -17.28367 -0 0 15.03341 -9.772358 9.020751 5.68255 6.290931 -21.57747 -2.723105 -90.97535 22.05414 19.34598 0 0 -19.05988 12.29267 11.12501 -0.2104509
1.405882 101.197 14.86362 -1.118676 1.924138 0.8059514 6.830282 -31.8487 3.161592 -0 23.80078 -0 -9.692556 -3.948252 1.027871 -5.843142 12.89939 -17.7585 -0 11.28871 -0 9.273587 -20.15933 21.80269 -2.797575 -1.678739 6.128022 1.870577 10.93909 -6.800661 1.061852 21.11119 6.736185 4.254323 -23.92384 7.93801 4.956233 -19.98846 10.82955 85.53269 36.7612 -16.92409 -0 0 15.04956 -10.08507 9.046574 5.97578 6.224795 -21.51661 -2.750912 -90.77708 21.93398 19.19521 0 0 -19.17555 12.11236 10.83507 -0.08717221
1.571024 100.7606 18.95319 -1.559151 2.318886 1.094446 7.29653 -33.68306 2.271078 -0 20.98868 -0 -10.32112 -1.502948 1.608305 -5.452529 13.42573 -16.38922 -0 14.25484 -0 7.566233 -20.32026 19.45796 -2.800169 -1.552029 6.154364 1.826887 10.93583 -6.734574 1.031379 21.09592 6.760117 4.297639 -23.84085 7.845289 4.880538 -19.9978 10.85734 85.3676 36.70112 -16.56184 -0 0 15.08582 -10.39762 9.065528 6.264081 6.161364 -21.45551 -2.777043 -90.59161 21.81107 19.0623 0 0 -19.27033 11.93433 10.55242 0.03543711
1.750342 100.5048 23.66041 -2.005238 2.713576 1.459817 7.832467 -34.62634 1.750951 -0 18.71664 -0 -10.78416 0.6974425 2.019724 -5.02698 13.76747 -14.92587 -0 18.37345 -0 5.448385 -19.61902 16.68197 -2.804244 -1.431504 6.182302 1.782722 10.93413 -6.669487 1.002194 21.08063 6.781042 4.337298 -23.75329 7.752472 4.807238 -20.0115 10.88649 85.19861 36.6271 -16.19945 -0 0 15.13464 -10.71118 9.080997 6.5511 6.098897 -21.39184 -2.799704 -90.41737 21.68976 18.94448 0 0 -19.34709 11.74972 10.27807 0.1684795
1.955661 100.5393 28.99544 -2.486646 3.059788 1.858932 8.496504 -34.43726 1.747203 -0 17.2894 -0 -11.02197 2.44291 2.157403 -4.507989 13.71389 -13.4296 -0 23.89657 -0 2.868534 -17.78933 13.57615 -2.810194 -1.317366 6.211408 1.738386 10.93431 -6.606131 0.9739316 21.06466 6.800367 4.374546 -23.66184 7.660138 4.73638 -20.02921 10.91699 85.02786 36.53959 -15.83974 -0 0 15.19523 -11.02438 9.092826 6.834901 6.038709 -21.32708 -2.81907 -90.25341 21.56791 18.83905 0 0 -19.40812 11.56131 10.01096 0.3070841
2.198271 100.9476 34.89996 -2.991792 3.265026 2.198097 9.241936 -32.89953 2.286563 -0 16.80057 -0 -10.9951 3.461852 1.936926 -3.864246 12.94658 -11.98586 -0 30.95955 -0 0.01463662 -14.68119 10.46149 -2.817578 -1.208911 6.241645 1.69382 10.93627 -6.54423 0.9466961 21.0481 6.817846 4.409244 -23.56671 7.568177 4.667584 -20.05061 10.9487 84.85574 36.43849 -15.48254 -0 0 15.26681 -11.33762 9.101299 7.115988 5.980318 -21.26086 -2.835588 -90.09911 21.4462 18.7455 0 0 -19.45445 11.3683 9.750289 0.4524472
2.481608 101.7576 41.21648 -3.427782 3.183831 2.34108 9.846505 -29.86017 3.163737 -0 16.95589 -0 -10.72807 3.453372 1.353211 -3.144386 11.07511 -10.71518 -0 39.40433 -0 -2.738052 -10.55168 7.860638 -2.82665 -1.106088 6.273504 1.648517 10.9405 -6.483297 0.9205064 21.03125 6.833396 4.441601 -23.46726 7.476439 4.600447 -20.07635 10.98128 84.68256 36.32455 -15.12727 -0 0 15.35002 -11.65101 9.106087 7.394147 5.923665 -21.19319 -2.849928 -89.95409 21.32441 18.66365 0 0 -19.48662 11.17157 9.495033 0.6034206
2.790686 102.9282 47.68298 -3.592373 2.642947 2.161068 9.940754 -25.29052 3.915487 -0 16.99147 -0 -10.35178 2.221613 0.5431742 -2.52694 7.772537 -9.734095 -0 48.56355 -0 -4.989176 -6.295994 6.313898 -2.837492 -1.008749 6.30746 1.601984 10.94731 -6.42275 0.8954604 21.01445 6.846708 4.471578 -23.36289 7.384743 4.534541 -20.10701 11.01445 84.50831 36.19823 -14.77288 -0 0 15.44558 -11.96496 9.106962 7.669558 5.868446 -21.12375 -2.86262 -89.81817 21.20281 18.5938 0 0 -19.50469 10.97132 9.244435 0.7599762
3.087907 104.3557 53.98973 -3.237118 1.553282 1.642841 9.23628 -19.42215 4.064258 -0 16.00129 -0 -10.05441 -0.07518283 -0.2302741 -2.260805 3.010598 -9.071508 -0 57.10687 -0 -6.461952 -3.226376 6.097008 -2.850099 -0.9167806 6.343749 1.55394 10.95684 -6.362241 0.8716437 20.99792 6.857634 4.499166 -23.25342 7.293094 4.469552 -20.14291 11.04796 84.33321 36.05973 -14.41899 -0 0 15.55389 -12.27952 9.103788 7.942146 5.814525 -21.05231 -2.873992 -89.69128 21.08165 18.53608 0 0 -19.50876 10.76775 8.998042 0.9219687
3.32572 105.8794 59.90675 -2.271572 0.04471404 0.9479342 7.839216 -12.89656 3.553192 -0 13.72143 -0 -9.898048 -2.747969 -0.7299059 -2.403374 -2.755687 -8.567218 -0 63.23564 -0 -7.031881 -2.180266 7.047009 -2.864134 -0.829935 6.382111 1.504553 10.96889 -6.301862 0.84914 20.98155 6.866209 4.524319 -23.13942 7.201745 4.405356 -20.18364 11.0817 84.15804 35.90874 -14.06653 -0 0 15.67428 -12.59424 9.096754 8.211574 5.761895 -20.97881 -2.884111 -89.57331 20.9614 18.49009 0 0 -19.49941 10.56067 8.755851 1.089657
3.470734 107.2751 65.39675 -0.9725709 -1.563754 0.3008163 6.294991 -6.623019 2.870237 -0 10.96507 -0 -9.687544 -4.945168 -0.9320816 -2.562613 -8.72809 -7.879639 -0 65.30732 -0 -6.785454 -2.744793 8.737344 -2.878941 -0.7478242 6.421739 1.45448 10.98299 -6.242243 0.8280055 20.96493 6.872717 4.547025 -23.02226 7.111211 4.342049 -20.228 11.11571 83.98437 35.74458 -13.71813 -0 0 15.80475 -12.90805 9.086397 8.477059 5.710761 -20.90352 -2.892865 -89.46397 20.8426 18.45459 0 0 -19.47807 10.34979 8.518226 1.263385
3.523289 108.2769 70.59019 0.1081781 -2.991181 -0.2171029 5.22636 -1.198301 2.495794 -0 8.806963 -0 -9.192553 -6.506005 -1.009116 -2.113402 -14.19478 -6.731598 -0 62.43446 -0 -6.06485 -3.785107 10.84065 -2.893661 -0.6699548 6.461461 1.404707 10.99851 -6.184403 0.8082652 20.94743 6.877616 4.56732 -22.90376 7.022144 4.279884 -20.27419 11.15009 83.81444 35.56644 -13.37776 -0 0 15.94221 -13.21934 9.073505 8.737449 5.661489 -20.82709 -2.900117 -89.36271 20.72581 18.42759 0 0 -19.44702 10.1348 8.285695 1.443437
3.523991 108.6563 75.65112 0.5561934 -4.094198 -0.6852738 4.912581 3.408618 2.340563 -0 7.533608 -0 -8.505261 -8.150168 -1.062507 -0.8058939 -18.79395 -5.21381 -0 54.76823 -0 -5.234561 -4.606856 13.1367 -2.907404 -0.5958037 6.499987 1.356321 11.0149 -6.129544 0.7899125 20.92836 6.881438 4.585308 -22.78585 6.9352 4.21917 -20.32021 11.18498 83.6509 35.37369 -13.05009 -0 0 16.08303 -13.52627 9.058956 8.99135 5.614555 -20.75041 -2.905831 -89.26875 20.61146 18.40654 0 0 -19.4092 9.915619 8.058717 1.629804
3.541871 108.3268 80.70328 0.3655123 -4.735955 -1.196466 5.173383 7.385851 2.049417 -0 6.916018 -0 -7.915293 -10.53071 -0.9896991 1.004728 -22.43872 -3.718178 -0 43.71847 -0 -4.451758 -5.099271 15.24372 -2.919298 -0.5248245 6.535961 1.310444 11.03171 -6.07899 0.7729031 20.90696 6.884787 4.601178 -22.67038 6.850996 4.160232 -20.36394 11.2205 83.4967 35.16581 -12.74022 -0 0 16.22317 -13.82686 9.043666 9.2372 5.570535 -20.67468 -2.910106 -89.18099 20.4998 18.38838 0 0 -19.36818 9.69242 7.837572 1.822126
3.648857 107.3951 85.86342 -0.1827905 -4.779901 -1.769519 5.57703 10.66042 1.608133 -0 6.967172 -0 -7.47999 -13.45341 -0.6873757 2.711418 -25.12489 -2.574765 -0 31.76166 -0 -3.753849 -5.244646 16.69933 -2.928495 -0.4564273 6.567944 1.268234 11.04861 -6.034219 0.7571435 20.8824 6.888369 4.615237 -22.55917 6.770097 4.103382 -20.40313 11.2568 83.35512 34.94236 -12.45377 -0 0 16.35819 -14.11905 9.028579 9.47329 5.530151 -20.60138 -2.913167 -89.09797 20.39078 18.3694 0 0 -19.32823 9.465583 7.622264 2.019631
3.894795 106.1112 91.27263 -0.7532081 -4.284051 -2.3768 5.700901 13.14715 1.26693 -0 7.928423 -0 -7.043038 -16.10924 -0.1956369 3.798041 -26.8251 -1.946292 -0 21.50206 -0 -3.195129 -5.083972 17.3629 -2.934284 -0.3900639 6.594597 1.230705 11.06548 -5.996666 0.7425146 20.85388 6.892887 4.627875 -22.45372 6.692946 4.048837 -20.43568 11.29399 83.22951 34.70303 -12.19622 -0 0 16.48378 -14.40089 9.014519 9.697888 5.494202 -20.53216 -2.915406 -89.01797 20.28409 18.34557 0 0 -19.29395 9.235779 7.412481 2.221116
